<?xml version="1.0" standalone="no"?>
<!DOCTYPE svg PUBLIC "-//W3C//DTD SVG 20010904//EN"
 "http://www.w3.org/TR/2001/REC-SVG-20010904/DTD/svg10.dtd">
<svg version="1.0" xmlns="http://www.w3.org/2000/svg"
 width="259.000000pt" height="259.000000pt" viewBox="0 0 259.000000 259.000000"
 preserveAspectRatio="xMidYMid meet">
<metadata>
Created by potrace 1.14, written by Peter Selinger 2001-2017
</metadata>
<g transform="translate(0.000000,259.000000) scale(0.100000,-0.100000)"
fill="#000000" stroke="none">
<path d="M1530 2545 c-137 -34 -339 -119 -442 -186 -20 -13 -56 -35 -79 -49
-23 -14 -55 -36 -71 -48 l-28 -24 0 24 c0 18 -2 20 -10 8 -5 -8 -10 -23 -10
-33 0 -10 -25 -45 -56 -77 l-56 -58 -31 35 c-30 34 -31 36 -12 49 11 8 31 24
45 36 14 13 47 39 73 58 26 19 69 52 96 72 26 21 71 49 99 63 70 35 77 50 21
42 -52 -7 -140 -45 -212 -90 -29 -18 -67 -39 -85 -46 -18 -8 -36 -19 -40 -25
-4 -6 -25 -24 -47 -40 -67 -49 -222 -211 -298 -311 -96 -127 -207 -402 -236
-585 -15 -91 -13 -274 3 -341 30 -124 111 -306 194 -434 59 -90 256 -286 349
-348 234 -155 443 -218 713 -216 l145 1 -65 15 c-36 9 -79 21 -95 29 -17 7
-70 24 -119 39 -49 14 -95 30 -103 36 -7 6 -40 24 -74 40 -57 27 -298 184
-380 247 -31 24 -86 82 -142 151 -10 13 -28 39 -39 59 -11 20 -33 55 -48 77
-46 67 -99 180 -110 231 -5 27 -14 65 -20 84 -6 19 -13 105 -17 190 -5 134 -3
172 16 279 25 137 40 190 78 266 36 73 130 221 188 295 45 57 50 62 53 40 1
-14 7 -42 13 -63 9 -34 8 -41 -17 -70 -33 -38 -95 -170 -117 -247 -31 -110
-67 -322 -67 -398 0 -79 21 -242 41 -317 6 -22 13 -51 16 -65 6 -28 25 -75 56
-138 52 -103 306 -372 407 -430 25 -14 79 -51 120 -81 166 -122 301 -192 479
-250 60 -20 87 -21 426 -21 l362 0 21 23 c29 30 28 80 0 118 -50 65 -146 157
-193 185 -74 42 -117 71 -148 99 -15 14 -34 25 -42 25 -9 0 -59 44 -113 97
-53 54 -101 96 -107 94 -5 -1 -7 1 -3 4 4 4 -8 26 -27 49 -41 50 -165 279
-165 305 0 5 -11 18 -25 28 -23 16 -26 28 -35 135 -18 208 -71 396 -157 558
-45 84 -46 85 -39 160 9 106 47 214 95 269 12 13 21 29 21 36 0 7 24 35 53 62
64 62 208 213 202 213 -27 0 -295 -162 -295 -179 0 -4 -11 -13 -25 -19 -26
-12 -171 -189 -207 -253 -12 -22 -25 -39 -29 -39 -4 0 -21 12 -38 26 l-31 26
32 46 c67 99 217 254 298 307 108 71 153 94 229 119 40 13 69 26 65 29 -23 14
-152 15 -204 2z m-460 -490 c159 -134 252 -229 304 -310 55 -86 74 -122 87
-170 4 -16 14 -49 23 -71 25 -68 56 -233 63 -329 5 -81 4 -93 -13 -110 -19
-18 -19 -18 -27 26 -26 142 -57 241 -109 349 -102 210 -137 257 -322 418 -87
76 -104 96 -133 159 -27 58 -33 84 -33 138 l0 67 38 -49 c22 -26 76 -79 122
-118z m-262 -1 c116 -91 333 -286 405 -364 32 -34 71 -90 88 -123 17 -34 41
-75 53 -92 46 -63 108 -225 112 -292 2 -35 9 -73 14 -83 22 -41 12 -67 -32
-85 -63 -25 -113 -13 -157 39 -75 87 -140 142 -207 175 -38 18 -76 37 -84 42
-8 5 -32 18 -52 29 -44 24 -56 43 -65 106 l-6 47 39 -37 c21 -21 65 -51 96
-67 31 -16 59 -32 62 -37 3 -5 34 -26 68 -46 82 -48 114 -77 143 -129 29 -50
34 -33 6 21 -36 69 -144 157 -271 221 -74 37 -87 48 -140 111 -30 36 -39 56
-44 100 -4 39 -3 49 3 33 9 -19 50 -52 111 -88 10 -6 24 -16 31 -22 8 -6 51
-30 97 -54 100 -51 156 -98 183 -151 27 -53 35 -43 10 13 -32 75 -112 144
-238 205 -139 68 -189 116 -233 220 -16 40 -30 85 -30 101 0 26 8 20 98 -73
93 -96 167 -154 260 -202 48 -25 52 -26 52 -13 0 5 -9 12 -19 16 -76 24 -296
210 -361 306 -47 69 -100 178 -100 206 0 30 14 70 18 52 1 -9 42 -47 90 -85z
m319 -885 c29 -22 59 -42 67 -45 8 -3 27 -22 43 -42 27 -36 16 -33 -32 11 -11
10 -33 26 -50 34 -34 18 -135 91 -135 98 0 11 60 -20 107 -56z m-353 -264 c-3
-7 -16 -21 -29 -29 -21 -14 -24 -13 -40 4 -17 19 -17 22 -1 58 l18 39 28 -29
c16 -16 27 -35 24 -43z m103 -94 l33 -27 -38 -22 c-36 -20 -38 -20 -61 -2
l-24 18 24 30 c13 17 26 31 29 31 3 0 20 -12 37 -28z m485 -464 l41 -35 -42
-27 -42 -28 -23 24 c-23 24 -23 25 -8 77 11 40 17 50 24 39 4 -9 27 -31 50
-50z m220 -163 c19 -6 19 -7 -8 -35 -31 -33 -55 -37 -78 -13 -16 15 -21 59
-10 87 5 13 11 11 41 -8 19 -13 44 -27 55 -31z m200 -138 c-59 -17 -106 14
-88 59 4 11 18 7 63 -18 l58 -31 -33 -10z"/>
</g>
</svg>
